<svg width="292" height="33" viewBox="0 0 292 33" fill="none" xmlns="http://www.w3.org/2000/svg">
<path d="M18.285 15.3161C19.8043 15.9181 21.037 16.8354 21.983 18.0681C22.9576 19.3007 23.445 20.8917 23.445 22.8411C23.445 26.2524 22.4703 28.6317 20.521 29.9791C18.5716 31.3264 16.2496 32.0001 13.555 32.0001H2.84798C2.10264 32.0001 1.47198 31.7564 0.955976 31.2691C0.468642 30.7531 0.224976 30.1224 0.224976 29.3771V4.52305C0.224976 3.77772 0.468642 3.16139 0.955976 2.67405C1.47198 2.15805 2.10264 1.90005 2.84798 1.90005H13.684C19.1306 1.90005 21.854 4.45139 21.854 9.55405C21.854 10.8441 21.5386 11.9907 20.908 12.9941C20.306 13.9687 19.4316 14.7427 18.285 15.3161ZM16.264 10.5001C16.264 9.32472 15.963 8.45039 15.361 7.87705C14.7876 7.27505 13.9706 6.97405 12.91 6.97405H5.81498V13.6821H13.039C13.899 13.6821 14.6443 13.3954 15.275 12.8221C15.9343 12.2487 16.264 11.4747 16.264 10.5001ZM13.555 27.0551C14.9023 27.0551 15.9486 26.6967 16.694 25.9801C17.468 25.2634 17.855 24.2171 17.855 22.8411C17.855 21.1497 17.4106 20.0461 16.522 19.5301C15.6333 19.0141 14.544 18.7561 13.254 18.7561H5.81498V27.0551H13.555Z" fill="#FEFEFE"/>
<path d="M32.1458 29.3771C32.1458 30.1224 31.8878 30.7531 31.3718 31.2691C30.8844 31.7564 30.2681 32.0001 29.5228 32.0001C28.8061 32.0001 28.2041 31.7564 27.7168 31.2691C27.2294 30.7531 26.9858 30.1224 26.9858 29.3771V2.80305C26.9858 2.05772 27.2294 1.44139 27.7168 0.954051C28.2328 0.438053 28.8634 0.180054 29.6088 0.180054C30.3254 0.180054 30.9274 0.438053 31.4148 0.954051C31.9021 1.44139 32.1458 2.05772 32.1458 2.80305V29.3771Z" fill="#FEFEFE"/>
<path d="M58.5377 20.5191C58.5377 22.8124 58.0217 24.8764 56.9897 26.7111C55.9577 28.5171 54.5387 29.9217 52.7327 30.9251C50.9553 31.9284 48.9917 32.4301 46.8417 32.4301C44.663 32.4301 42.685 31.9284 40.9077 30.9251C39.1303 29.9217 37.7257 28.5171 36.6937 26.7111C35.6617 24.8764 35.1457 22.8124 35.1457 20.5191C35.1457 18.2257 35.6617 16.1761 36.6937 14.3701C37.7257 12.5354 39.1303 11.1164 40.9077 10.1131C42.685 9.08105 44.663 8.56505 46.8417 8.56505C48.9917 8.56505 50.9553 9.08105 52.7327 10.1131C54.5387 11.1164 55.9577 12.5354 56.9897 14.3701C58.0217 16.1761 58.5377 18.2257 58.5377 20.5191ZM53.3777 20.5191C53.3777 19.1144 53.0767 17.8674 52.4747 16.7781C51.9013 15.6601 51.113 14.8001 50.1097 14.1981C49.135 13.5961 48.0457 13.2951 46.8417 13.2951C45.6377 13.2951 44.534 13.5961 43.5307 14.1981C42.556 14.8001 41.7677 15.6601 41.1657 16.7781C40.5923 17.8674 40.3057 19.1144 40.3057 20.5191C40.3057 21.9237 40.5923 23.1707 41.1657 24.2601C41.7677 25.3494 42.556 26.1951 43.5307 26.7971C44.534 27.3991 45.6377 27.7001 46.8417 27.7001C48.0457 27.7001 49.135 27.3991 50.1097 26.7971C51.113 26.1951 51.9013 25.3494 52.4747 24.2601C53.0767 23.1707 53.3777 21.9237 53.3777 20.5191Z" fill="#FEFEFE"/>
<path d="M71.5778 8.56505C74.0144 8.56505 75.9781 8.95205 77.4688 9.72605C78.9594 10.4714 79.7048 11.4747 79.7048 12.7361C79.7048 13.3667 79.5184 13.9257 79.1458 14.4131C78.7731 14.8717 78.2858 15.1011 77.6838 15.1011C77.2251 15.1011 76.8524 15.0437 76.5658 14.9291C76.2791 14.7857 75.9924 14.6137 75.7058 14.4131C75.4478 14.1837 75.1898 13.9974 74.9318 13.8541C74.6451 13.7107 74.2151 13.5817 73.6418 13.4671C73.0971 13.3524 72.6528 13.2951 72.3088 13.2951C70.1588 13.2951 68.4674 13.9687 67.2348 15.3161C66.0308 16.6347 65.4288 18.3691 65.4288 20.5191C65.4288 22.5831 66.0451 24.3031 67.2778 25.6791C68.5104 27.0264 70.0871 27.7001 72.0078 27.7001C73.4124 27.7001 74.4588 27.5281 75.1468 27.1841C75.3188 27.0981 75.5481 26.9547 75.8348 26.7541C76.1501 26.5247 76.4368 26.3527 76.6948 26.2381C76.9528 26.1234 77.2681 26.0661 77.6408 26.0661C78.3574 26.0661 78.9164 26.2954 79.3178 26.7541C79.7478 27.2127 79.9628 27.8004 79.9628 28.5171C79.9628 29.2051 79.5614 29.8501 78.7588 30.4521C77.9561 31.0541 76.8954 31.5414 75.5768 31.9141C74.2581 32.2581 72.8534 32.4301 71.3628 32.4301C69.1554 32.4301 67.2061 31.9141 65.5148 30.8821C63.8521 29.8501 62.5621 28.4311 61.6448 26.6251C60.7274 24.7904 60.2688 22.7551 60.2688 20.5191C60.2688 18.1971 60.7418 16.1331 61.6878 14.3271C62.6624 12.5211 64.0098 11.1164 65.7298 10.1131C67.4498 9.08105 69.3991 8.56505 71.5778 8.56505Z" fill="#FEFEFE"/>
<path d="M104.501 20.5191C104.501 22.8124 103.985 24.8764 102.953 26.7111C101.921 28.5171 100.502 29.9217 98.6956 30.9251C96.9183 31.9284 94.9546 32.4301 92.8046 32.4301C90.626 32.4301 88.648 31.9284 86.8706 30.9251C85.0933 29.9217 83.6886 28.5171 82.6566 26.7111C81.6246 24.8764 81.1086 22.8124 81.1086 20.5191C81.1086 18.2257 81.6246 16.1761 82.6566 14.3701C83.6886 12.5354 85.0933 11.1164 86.8706 10.1131C88.648 9.08105 90.626 8.56505 92.8046 8.56505C94.9546 8.56505 96.9183 9.08105 98.6956 10.1131C100.502 11.1164 101.921 12.5354 102.953 14.3701C103.985 16.1761 104.501 18.2257 104.501 20.5191ZM99.3406 20.5191C99.3406 19.1144 99.0396 17.8674 98.4376 16.7781C97.8643 15.6601 97.076 14.8001 96.0726 14.1981C95.098 13.5961 94.0086 13.2951 92.8046 13.2951C91.6006 13.2951 90.497 13.5961 89.4936 14.1981C88.519 14.8001 87.7306 15.6601 87.1286 16.7781C86.5553 17.8674 86.2686 19.1144 86.2686 20.5191C86.2686 21.9237 86.5553 23.1707 87.1286 24.2601C87.7306 25.3494 88.519 26.1951 89.4936 26.7971C90.497 27.3991 91.6006 27.7001 92.8046 27.7001C94.0086 27.7001 95.098 27.3991 96.0726 26.7971C97.076 26.1951 97.8643 25.3494 98.4376 24.2601C99.0396 23.1707 99.3406 21.9237 99.3406 20.5191Z" fill="#FEFEFE"/>
<path d="M136.902 0.180054C137.648 0.180054 138.264 0.42372 138.751 0.911052C139.239 1.39839 139.482 2.02905 139.482 2.80305V29.3771C139.482 30.1224 139.239 30.7531 138.751 31.2691C138.264 31.7564 137.648 32.0001 136.902 32.0001C136.157 32.0001 135.541 31.7564 135.053 31.2691C134.595 30.7817 134.351 30.1654 134.322 29.4201C133.606 30.2514 132.631 30.9681 131.398 31.5701C130.194 32.1434 128.919 32.4301 127.571 32.4301C125.593 32.4301 123.802 31.9284 122.196 30.9251C120.591 29.8931 119.315 28.4741 118.369 26.6681C117.452 24.8621 116.993 22.8124 116.993 20.5191C116.993 18.2257 117.452 16.1761 118.369 14.3701C119.287 12.5354 120.534 11.1164 122.11 10.1131C123.716 9.08105 125.479 8.56505 127.399 8.56505C128.775 8.56505 130.066 8.82305 131.27 9.33905C132.474 9.82639 133.491 10.4571 134.322 11.2311V2.80305C134.322 2.05772 134.566 1.44139 135.053 0.954051C135.541 0.438053 136.157 0.180054 136.902 0.180054ZM128.216 27.7001C130.08 27.7001 131.599 27.0264 132.774 25.6791C133.95 24.3031 134.537 22.5831 134.537 20.5191C134.537 18.4551 133.95 16.7351 132.774 15.3591C131.599 13.9831 130.08 13.2951 128.216 13.2951C126.382 13.2951 124.877 13.9831 123.701 15.3591C122.526 16.7351 121.938 18.4551 121.938 20.5191C121.938 22.5831 122.512 24.3031 123.658 25.6791C124.834 27.0264 126.353 27.7001 128.216 27.7001Z" fill="#FEFEFE"/>
<path d="M164.425 19.9601C164.396 20.6481 164.124 21.2071 163.608 21.6371C163.092 22.0671 162.49 22.2821 161.802 22.2821H147.612C147.956 23.9734 148.744 25.3064 149.977 26.2811C151.209 27.2271 152.6 27.7001 154.148 27.7001C155.323 27.7001 156.24 27.5997 156.9 27.3991C157.559 27.1697 158.075 26.9404 158.448 26.7111C158.849 26.4531 159.121 26.2811 159.265 26.1951C159.781 25.9371 160.268 25.8081 160.727 25.8081C161.329 25.8081 161.845 26.0231 162.275 26.4531C162.705 26.8831 162.92 27.3847 162.92 27.9581C162.92 28.7321 162.518 29.4344 161.716 30.0651C160.913 30.7244 159.838 31.2834 158.491 31.7421C157.143 32.2007 155.782 32.4301 154.406 32.4301C151.998 32.4301 149.891 31.9284 148.085 30.9251C146.307 29.9217 144.931 28.5457 143.957 26.7971C142.982 25.0197 142.495 23.0274 142.495 20.8201C142.495 18.3547 143.011 16.1904 144.043 14.3271C145.075 12.4637 146.436 11.0447 148.128 10.0701C149.819 9.06672 151.625 8.56505 153.546 8.56505C155.438 8.56505 157.215 9.08105 158.878 10.1131C160.569 11.1451 161.916 12.5354 162.92 14.2841C163.923 16.0327 164.425 17.9247 164.425 19.9601ZM153.546 13.2951C150.22 13.2951 148.257 14.8574 147.655 17.9821H158.921V17.6811C158.806 16.4771 158.218 15.4451 157.158 14.5851C156.097 13.7251 154.893 13.2951 153.546 13.2951Z" fill="#FEFEFE"/>
<path d="M201.463 1.90005C202.151 1.90005 202.71 2.12939 203.14 2.58805C203.57 3.04672 203.785 3.62005 203.785 4.30805V29.3771C203.785 30.1224 203.527 30.7531 203.011 31.2691C202.523 31.7564 201.907 32.0001 201.162 32.0001C200.76 32.0001 200.359 31.9427 199.958 31.8281C199.585 31.6847 199.313 31.4984 199.141 31.2691L183.36 11.2311V29.5921C183.36 30.2801 183.13 30.8534 182.672 31.3121C182.242 31.7707 181.668 32.0001 180.952 32.0001C180.264 32.0001 179.705 31.7707 179.275 31.3121C178.845 30.8534 178.63 30.2801 178.63 29.5921V4.52305C178.63 3.77772 178.873 3.16139 179.361 2.67405C179.877 2.15805 180.507 1.90005 181.253 1.90005C181.683 1.90005 182.098 1.98605 182.5 2.15805C182.93 2.33005 183.245 2.55939 183.446 2.84605L199.098 22.7981V4.30805C199.098 3.62005 199.313 3.04672 199.743 2.58805C200.201 2.12939 200.775 1.90005 201.463 1.90005Z" fill="#FEFEFE"/>
<path d="M230.632 20.5191C230.632 22.8124 230.116 24.8764 229.084 26.7111C228.052 28.5171 226.633 29.9217 224.827 30.9251C223.049 31.9284 221.086 32.4301 218.936 32.4301C216.757 32.4301 214.779 31.9284 213.002 30.9251C211.224 29.9217 209.82 28.5171 208.788 26.7111C207.756 24.8764 207.24 22.8124 207.24 20.5191C207.24 18.2257 207.756 16.1761 208.788 14.3701C209.82 12.5354 211.224 11.1164 213.002 10.1131C214.779 9.08105 216.757 8.56505 218.936 8.56505C221.086 8.56505 223.049 9.08105 224.827 10.1131C226.633 11.1164 228.052 12.5354 229.084 14.3701C230.116 16.1761 230.632 18.2257 230.632 20.5191ZM225.472 20.5191C225.472 19.1144 225.171 17.8674 224.569 16.7781C223.995 15.6601 223.207 14.8001 222.204 14.1981C221.229 13.5961 220.14 13.2951 218.936 13.2951C217.732 13.2951 216.628 13.5961 215.625 14.1981C214.65 14.8001 213.862 15.6601 213.26 16.7781C212.686 17.8674 212.4 19.1144 212.4 20.5191C212.4 21.9237 212.686 23.1707 213.26 24.2601C213.862 25.3494 214.65 26.1951 215.625 26.7971C216.628 27.3991 217.732 27.7001 218.936 27.7001C220.14 27.7001 221.229 27.3991 222.204 26.7971C223.207 26.1951 223.995 25.3494 224.569 24.2601C225.171 23.1707 225.472 21.9237 225.472 20.5191Z" fill="#FEFEFE"/>
<path d="M244.747 27.1411C245.148 27.1411 245.506 27.3417 245.822 27.7431C246.166 28.1157 246.338 28.6174 246.338 29.2481C246.338 30.0221 245.908 30.6814 245.048 31.2261C244.216 31.7421 243.27 32.0001 242.21 32.0001C240.432 32.0001 238.927 31.6274 237.695 30.8821C236.491 30.1081 235.889 28.4884 235.889 26.0231V14.1551H233.911C233.223 14.1551 232.649 13.9257 232.191 13.4671C231.732 13.0084 231.503 12.4351 231.503 11.7471C231.503 11.0877 231.732 10.5431 232.191 10.1131C232.649 9.65439 233.223 9.42505 233.911 9.42505H235.889V6.67305C235.889 5.92772 236.132 5.31139 236.62 4.82405C237.136 4.30805 237.766 4.05005 238.512 4.05005C239.228 4.05005 239.83 4.30805 240.318 4.82405C240.805 5.31139 241.049 5.92772 241.049 6.67305V9.42505H244.102C244.79 9.42505 245.363 9.65439 245.822 10.1131C246.28 10.5717 246.51 11.1451 246.51 11.8331C246.51 12.4924 246.28 13.0514 245.822 13.5101C245.363 13.9401 244.79 14.1551 244.102 14.1551H241.049V25.8081C241.049 26.4101 241.206 26.8544 241.522 27.1411C241.837 27.3991 242.267 27.5281 242.812 27.5281C243.041 27.5281 243.356 27.4707 243.758 27.3561C244.102 27.2127 244.431 27.1411 244.747 27.1411Z" fill="#FEFEFE"/>
<path d="M268.577 8.56505C269.322 8.56505 269.938 8.80872 270.426 9.29605C270.913 9.78339 271.157 10.4141 271.157 11.1881V29.3771C271.157 30.1224 270.913 30.7531 270.426 31.2691C269.938 31.7564 269.322 32.0001 268.577 32.0001C267.831 32.0001 267.215 31.7564 266.728 31.2691C266.269 30.7817 266.025 30.1654 265.997 29.4201C265.28 30.2514 264.305 30.9681 263.073 31.5701C261.869 32.1434 260.593 32.4301 259.246 32.4301C257.268 32.4301 255.476 31.9284 253.871 30.9251C252.265 29.8931 250.99 28.4741 250.044 26.6681C249.126 24.8621 248.668 22.8124 248.668 20.5191C248.668 18.2257 249.126 16.1761 250.044 14.3701C250.961 12.5354 252.208 11.1164 253.785 10.1131C255.39 9.08105 257.153 8.56505 259.074 8.56505C260.45 8.56505 261.74 8.82305 262.944 9.33905C264.148 9.82639 265.165 10.4571 265.997 11.2311V11.1881C265.997 10.4427 266.24 9.82639 266.728 9.33905C267.215 8.82305 267.831 8.56505 268.577 8.56505ZM259.891 27.7001C261.754 27.7001 263.273 27.0264 264.449 25.6791C265.624 24.3031 266.212 22.5831 266.212 20.5191C266.212 18.4551 265.624 16.7351 264.449 15.3591C263.273 13.9831 261.754 13.2951 259.891 13.2951C258.056 13.2951 256.551 13.9831 255.376 15.3591C254.2 16.7351 253.613 18.4551 253.613 20.5191C253.613 22.5831 254.186 24.3031 255.333 25.6791C256.508 27.0264 258.027 27.7001 259.891 27.7001Z" fill="#FEFEFE"/>
<path d="M274.126 28.4311C273.868 28.0871 273.739 27.6571 273.739 27.1411C273.739 26.3957 274.111 25.7651 274.857 25.2491C275.258 24.9911 275.674 24.8621 276.104 24.8621C276.706 24.8621 277.279 25.1344 277.824 25.6791C278.684 26.5677 279.572 27.2271 280.49 27.6571C281.436 28.0871 282.568 28.3021 283.887 28.3021C286.123 28.2161 287.241 27.3704 287.241 25.7651C287.241 24.9337 286.854 24.3031 286.08 23.8731C285.334 23.4431 284.159 23.0131 282.554 22.5831C280.891 22.1244 279.529 21.6657 278.469 21.2071C277.437 20.7484 276.534 20.0604 275.76 19.1431C275.014 18.1971 274.642 16.9357 274.642 15.3591C274.642 13.9831 275.029 12.7934 275.803 11.7901C276.605 10.7581 277.637 9.96972 278.899 9.42505C280.189 8.85172 281.55 8.56505 282.984 8.56505C284.446 8.56505 285.908 8.83739 287.37 9.38205C288.832 9.92672 289.978 10.7294 290.81 11.7901C291.182 12.2487 291.369 12.7647 291.369 13.3381C291.369 13.9974 291.096 14.5421 290.552 14.9721C290.15 15.2874 289.692 15.4451 289.176 15.4451C288.545 15.4451 288.029 15.2444 287.628 14.8431C287.112 14.2124 286.438 13.7107 285.607 13.3381C284.804 12.9654 283.887 12.7791 282.855 12.7791C280.676 12.7791 279.587 13.5674 279.587 15.1441C279.587 15.7747 279.787 16.2907 280.189 16.6921C280.59 17.0647 281.092 17.3657 281.694 17.5951C282.324 17.7957 283.199 18.0537 284.317 18.3691C285.865 18.7991 287.155 19.2434 288.187 19.7021C289.219 20.1607 290.093 20.8631 290.81 21.8091C291.526 22.7551 291.885 24.0021 291.885 25.5501C291.885 26.9547 291.469 28.1874 290.638 29.2481C289.806 30.2801 288.731 31.0684 287.413 31.6131C286.123 32.1577 284.79 32.4301 283.414 32.4301C281.522 32.4301 279.759 32.1147 278.125 31.4841C276.491 30.8534 275.158 29.8357 274.126 28.4311Z" fill="#FEFEFE"/>
</svg>
